<svg width="18" height="18" viewBox="0 0 18 18" fill="none" xmlns="http://www.w3.org/2000/svg">
<path fill-rule="evenodd" clip-rule="evenodd" d="M16.3125 4.5C17.2687 4.5 18 5.23125 18 6.1875V14.0625C18 15.6375 16.7625 16.875 15.1875 16.875H2.8125C1.2375 16.875 0 15.6375 0 14.0625V2.8125C0 1.85625 0.73125 1.125 1.6875 1.125H6.8625C7.0875 1.125 7.25625 1.2375 7.36875 1.40625L8.55 3.6C8.83125 4.1625 9.39375 4.5 10.0125 4.5H16.3125ZM16.875 6.1875V14.0625C16.875 15.0188 16.1437 15.75 15.1875 15.75H2.8125C1.85625 15.75 1.125 15.0188 1.125 14.0625V5.625H16.3125C16.65 5.625 16.875 5.85 16.875 6.1875ZM7.7625 4.5C7.65 4.3875 7.59375 4.275 7.5375 4.1625L6.525 2.25H1.6875C1.35 2.25 1.125 2.475 1.125 2.8125V4.5H7.7625Z" fill="#71717A"/>
</svg>
