<svg width="18" height="19" viewBox="0 0 18 19" fill="none" xmlns="http://www.w3.org/2000/svg">
<path d="M9.25 0.75C4.45 0.75 0.5 4.7 0.5 9.5C0.5 14.3 4.45 18.25 9.25 18.25C14.05 18.25 18 14.3 18 9.5C18 4.7 14.05 0.75 9.25 0.75ZM9.25 16.75C5.25 16.75 2 13.5 2 9.5C2 5.5 5.25 2.25 9.25 2.25C13.25 2.25 16.5 5.5 16.5 9.5C16.5 13.5 13.25 16.75 9.25 16.75ZM13.1 7C13.4 7.3 13.4 7.75 13.1 8.05L8.1 13.05C8 13.15 7.8 13.2 7.6 13.2C7.4 13.2 7.2 13.15 7.05 13L5 10.95C4.7 10.65 4.7 10.2 5 9.9C5.3 9.6 5.75 9.6 6.05 9.9L7.6 11.45L12.05 7C12.35 6.7 12.8 6.7 13.1 7Z" fill="#A1A1AA"/>
</svg>
