<svg width="18" height="18" viewBox="0 0 18 18" fill="none" xmlns="http://www.w3.org/2000/svg">
<path d="M10.2975 3.00003C10.1657 2.77272 9.97643 2.58404 9.74872 2.45288C9.52101 2.32172 9.26283 2.25269 9.00005 2.25269C8.73726 2.25269 8.47909 2.32172 8.25138 2.45288C8.02367 2.58404 7.83441 2.77272 7.70255 3.00003L1.70255 13.5C1.57096 13.7279 1.50165 13.9865 1.50159 14.2496C1.50152 14.5128 1.57069 14.7714 1.70216 14.9994C1.83363 15.2273 2.02277 15.4167 2.25059 15.5485C2.4784 15.6803 2.73687 15.7498 3.00005 15.75H15C15.2632 15.7498 15.5217 15.6803 15.7495 15.5485C15.9773 15.4167 16.1665 15.2273 16.2979 14.9994C16.4294 14.7714 16.4986 14.5128 16.4985 14.2496C16.4984 13.9865 16.4291 13.7279 16.2975 13.5L10.2975 3.00003Z" stroke="#00B252" stroke-width="0.9" stroke-linecap="round" stroke-linejoin="round"/>
</svg>
