<svg width="16" height="16" viewBox="0 0 16 16" fill="none" xmlns="http://www.w3.org/2000/svg">
<g id="SVG">
<path id="Vector" d="M11.356 6.4615L6.752 11.1375C6.70554 11.1849 6.65011 11.2225 6.58894 11.2482C6.52777 11.2739 6.46209 11.2871 6.39575 11.2871C6.32941 11.2871 6.26373 11.2739 6.20256 11.2482C6.14139 11.2225 6.08596 11.1849 6.0395 11.1375L4.1435 9.2105C4.05058 9.11586 3.99898 8.98824 4.00001 8.85561C4.00104 8.72299 4.05462 8.59618 4.149 8.503C4.24364 8.41008 4.37126 8.35848 4.50389 8.35951C4.63651 8.36055 4.76332 8.41412 4.8565 8.5085L6.3965 10.0735L10.644 5.7595C10.6898 5.71153 10.7447 5.67314 10.8054 5.64658C10.8662 5.62002 10.9316 5.6058 10.9979 5.60477C11.0642 5.60374 11.1301 5.61591 11.1916 5.64057C11.2532 5.66523 11.3092 5.70189 11.3565 5.74842C11.4037 5.79495 11.4413 5.85041 11.4669 5.91157C11.4925 5.97274 11.5057 6.03839 11.5057 6.10471C11.5057 6.17102 11.4925 6.23668 11.4669 6.29784C11.4413 6.35901 11.4038 6.41447 11.3565 6.461L11.356 6.4615ZM10 13H12V15C12 15.1326 12.0527 15.2598 12.1464 15.3536C12.2402 15.4473 12.3674 15.5 12.5 15.5C12.6326 15.5 12.7598 15.4473 12.8536 15.3536C12.9473 15.2598 13 15.1326 13 15V13H15C15.1326 13 15.2598 12.9473 15.3536 12.8536C15.4473 12.7598 15.5 12.6326 15.5 12.5C15.5 12.3674 15.4473 12.2402 15.3536 12.1464C15.2598 12.0527 15.1326 12 15 12H13V10C13 9.86739 12.9473 9.74021 12.8536 9.64645C12.7598 9.55268 12.6326 9.5 12.5 9.5C12.3674 9.5 12.2402 9.55268 12.1464 9.64645C12.0527 9.74021 12 9.86739 12 10V12H10C9.86739 12 9.74021 12.0527 9.64645 12.1464C9.55268 12.2402 9.5 12.3674 9.5 12.5C9.5 12.6326 9.55268 12.7598 9.64645 12.8536C9.74021 12.9473 9.86739 13 10 13ZM8 0C3.589 0 0 3.589 0 8C0 12.411 3.589 16 8 16C8.179 16 8.3565 15.994 8.5325 15.9825C8.66484 15.9739 8.78834 15.913 8.87583 15.8134C8.96331 15.7137 9.00762 15.5833 8.999 15.451C8.99038 15.3187 8.92954 15.1952 8.82987 15.1077C8.73019 15.0202 8.59984 14.9759 8.4675 14.9845C8.313 14.9945 8.157 15 8 15C4.14 15 1 11.86 1 8C1 4.14 4.14 1 8 1C11.86 1 15 4.14 15 8C15 8.157 14.9945 8.313 14.9845 8.4675C14.9759 8.59984 15.0202 8.73019 15.1077 8.82987C15.1952 8.92954 15.3187 8.99038 15.451 8.999C15.5833 9.00762 15.7137 8.96331 15.8134 8.87583C15.913 8.78834 15.9739 8.66484 15.9825 8.5325C15.994 8.3565 16 8.179 16 8C16 3.589 12.411 0 8 0Z" fill="#6D6E6F"/>
</g>
</svg>
