<svg width="16" height="16" viewBox="0 0 16 16" fill="none" xmlns="http://www.w3.org/2000/svg">
<g id="SVG">
<path id="Vector" d="M14.5 1H1.5C1.36739 1 1.24021 1.05268 1.14645 1.14645C1.05268 1.24021 1 1.36739 1 1.5V4.5C1 4.63261 1.05268 4.75979 1.14645 4.85355C1.24021 4.94732 1.36739 5 1.5 5H2V13C2 14.103 2.897 15 4 15H12C13.103 15 14 14.103 14 13V5H14.5C14.6326 5 14.7598 4.94732 14.8536 4.85355C14.9473 4.75979 15 4.63261 15 4.5V1.5C15 1.36739 14.9473 1.24021 14.8536 1.14645C14.7598 1.05268 14.6326 1 14.5 1ZM13 13C13 13.5515 12.5515 14 12 14H4C3.4485 14 3 13.5515 3 13V5H13V13ZM14 4H2V2H14V4ZM5 7.5C5 7.36739 5.05268 7.24021 5.14645 7.14645C5.24021 7.05268 5.36739 7 5.5 7H10.5C10.6326 7 10.7598 7.05268 10.8536 7.14645C10.9473 7.24021 11 7.36739 11 7.5C11 7.63261 10.9473 7.75979 10.8536 7.85355C10.7598 7.94732 10.6326 8 10.5 8H5.5C5.36739 8 5.24021 7.94732 5.14645 7.85355C5.05268 7.75979 5 7.63261 5 7.5Z" fill="#3F3F46"/>
</g>
</svg>
