<svg width="5" height="10" viewBox="0 0 5 10" fill="none" xmlns="http://www.w3.org/2000/svg">
<path id="Vector" d="M4.32107 8.09533L1.72773 5.00491L4.32107 1.91449C4.44879 1.76225 4.51081 1.5655 4.49348 1.36753C4.47615 1.16957 4.38088 0.986594 4.22864 0.858866C4.0764 0.731138 3.87966 0.669119 3.68169 0.686451C3.48372 0.703784 3.30075 0.799049 3.17302 0.951289L0.175523 4.52331C0.0621386 4.65817 -2.71797e-05 4.82871 -2.71797e-05 5.00491C-2.71797e-05 5.1811 0.0621386 5.35164 0.175523 5.48651L3.17302 9.05853C3.30176 9.20739 3.48389 9.29963 3.68007 9.31533C3.87624 9.33103 4.07072 9.26893 4.2215 9.14243C4.37227 9.01594 4.46722 8.83521 4.48585 8.63928C4.50448 8.44336 4.44529 8.24797 4.32107 8.09533Z" fill="#71717A"/>
</svg>
