<svg width="35" height="35" viewBox="0 0 35 35" fill="none" xmlns="http://www.w3.org/2000/svg">
<path d="M18 15.75C19.275 15.75 20.25 16.725 20.25 18C20.25 19.275 19.275 20.25 18 20.25C16.725 20.25 15.75 19.275 15.75 18C15.75 16.725 16.725 15.75 18 15.75ZM8.25 15.75C9.525 15.75 10.5 16.725 10.5 18C10.5 19.275 9.525 20.25 8.25 20.25C6.975 20.25 6 19.275 6 18C6 16.725 6.975 15.75 8.25 15.75ZM27.75 15.75C29.025 15.75 30 16.725 30 18C30 19.275 29.025 20.25 27.75 20.25C26.475 20.25 25.5 19.275 25.5 18C25.5 16.725 26.475 15.75 27.75 15.75Z" fill="#3F3F46"/>
</svg>
