<svg width="14" height="14" viewBox="0 0 14 14" fill="none" xmlns="http://www.w3.org/2000/svg">
<path d="M10.4994 2.91678V10.5001H12.2494C12.3648 10.5001 12.4775 10.5344 12.5734 10.5985C12.6693 10.6626 12.7441 10.7537 12.7882 10.8602C12.8324 10.9668 12.8439 11.0841 12.8214 11.1972C12.7989 11.3104 12.7434 11.4143 12.6618 11.4959L10.3285 13.8292C10.2745 13.8836 10.2102 13.9267 10.1394 13.9561C10.0686 13.9856 9.99274 14.0007 9.91608 14.0007C9.83943 14.0007 9.76353 13.9856 9.69275 13.9561C9.62197 13.9267 9.55771 13.8836 9.50367 13.8292L7.17033 11.4959C7.08878 11.4143 7.03324 11.3104 7.01074 11.1972C6.98825 11.0841 6.9998 10.9668 7.04394 10.8602C7.08808 10.7537 7.16283 10.6626 7.25873 10.5985C7.35464 10.5344 7.46739 10.5001 7.58275 10.5001H9.33275V2.91678C9.33275 2.76207 9.39421 2.6137 9.5036 2.50431C9.613 2.39491 9.76137 2.33345 9.91608 2.33345C10.0708 2.33345 10.2192 2.39491 10.3286 2.50431C10.438 2.6137 10.4994 2.76207 10.4994 2.91678ZM1.21042 3.1402C1.2546 3.24677 1.32939 3.33784 1.42533 3.4019C1.52127 3.46597 1.63405 3.50015 1.74942 3.50012H3.49942V11.0834C3.49942 11.2382 3.56087 11.3865 3.67027 11.4959C3.77967 11.6053 3.92804 11.6668 4.08275 11.6668C4.23746 11.6668 4.38583 11.6053 4.49523 11.4959C4.60462 11.3865 4.66608 11.2382 4.66608 11.0834V3.50012H6.41608C6.53144 3.50009 6.64419 3.46587 6.7401 3.40177C6.83601 3.33767 6.91075 3.24657 6.9549 3.14C6.99904 3.03342 7.01059 2.91615 6.98809 2.80302C6.96559 2.68988 6.91006 2.58595 6.8285 2.50437L4.49517 0.171034C4.44104 0.116816 4.37675 0.073802 4.30599 0.044454C4.23522 0.0151061 4.15936 0 4.08275 0C4.00614 0 3.93028 0.0151061 3.85951 0.044454C3.78874 0.073802 3.72446 0.116816 3.67033 0.171034L1.337 2.50437C1.25537 2.58594 1.19978 2.6899 1.17724 2.80308C1.15471 2.91626 1.16626 3.03358 1.21042 3.1402Z" fill="#3F3F46"/>
</svg>
