<svg width="17" height="16" viewBox="0 0 17 16" fill="none" xmlns="http://www.w3.org/2000/svg">
<g id="SVG">
<path id="Vector" d="M11 9C8.7945 9 7 7.2055 7 5C7 2.7945 8.7945 1 11 1C13.2055 1 15 2.7945 15 5C15 7.2055 13.2055 9 11 9ZM11 2C9.3455 2 8 3.3455 8 5C8 6.6545 9.3455 8 11 8C12.6545 8 14 6.6545 14 5C14 3.3455 12.6545 2 11 2ZM16.5 14.5V13.5C16.5 11.57 14.9295 10 13 10H9C7.0705 10 5.5 11.57 5.5 13.5V14.5C5.5 14.776 5.7235 15 6 15C6.2765 15 6.5 14.776 6.5 14.5V13.5C6.5 12.1215 7.6215 11 9 11H13C14.3785 11 15.5 12.1215 15.5 13.5V14.5C15.5 14.776 15.7235 15 16 15C16.2765 15 16.5 14.776 16.5 14.5ZM6.5 8.5C6.5 8.224 6.2765 8 6 8C4.3455 8 3 6.6545 3 5C3 3.3455 4.3455 2 6 2C6.2765 2 6.5 1.776 6.5 1.5C6.5 1.224 6.2765 1 6 1C3.7945 1 2 2.7945 2 5C2 7.2055 3.7945 9 6 9C6.2765 9 6.5 8.776 6.5 8.5ZM1.5 14.5V13.5C1.5 12.1215 2.6215 11 4 11H5C5.2765 11 5.5 10.776 5.5 10.5C5.5 10.224 5.2765 10 5 10H4C2.0705 10 0.5 11.57 0.5 13.5V14.5C0.5 14.776 0.7235 15 1 15C1.2765 15 1.5 14.776 1.5 14.5Z" fill="black"/>
</g>
</svg>
