<svg width="16" height="16" viewBox="0 0 16 16" fill="none" xmlns="http://www.w3.org/2000/svg">
<g id="SVG">
<path id="Vector" d="M13 0C12.5789 0.00029462 12.1626 0.0895276 11.7784 0.261856C11.3942 0.434185 11.0508 0.685723 10.7705 1H4C2.3455 1 1 2.3455 1 4V12C1 13.6545 2.3455 15 4 15H12C13.6545 15 15 13.6545 15 12V5.2295C15.3143 4.94925 15.5658 4.60577 15.7381 4.22156C15.9105 3.83736 15.9997 3.42108 16 3C16 1.3455 14.6545 0 13 0ZM14 12C14 13.103 13.103 14 12 14H4C2.897 14 2 13.103 2 12V4C2 2.897 2.897 2 4 2H10.175C10.0598 2.32084 10.0006 2.6591 10 3C10 4.6545 11.3455 6 13 6C13.3409 5.99939 13.6792 5.9402 14 5.825V12ZM13 5C11.897 5 11 4.103 11 3C11 1.897 11.897 1 13 1C14.103 1 15 1.897 15 3C15 4.103 14.103 5 13 5Z" fill="#3F3F46"/>
</g>
</svg>
