<svg width="16" height="16" viewBox="0 0 16 16" fill="none" xmlns="http://www.w3.org/2000/svg">
<g id="SVG">
<path id="Vector" d="M4.06703 15.64L8.00003 11.707L11.933 15.64C12.0203 15.7276 12.1316 15.7873 12.2529 15.8114C12.3742 15.8355 12.4999 15.823 12.614 15.7755C12.8485 15.6785 12.999 15.452 12.999 15.198V2C12.999 0.897 12.1025 0 10.999 0H4.99903C3.89653 0 2.99903 0.897 2.99903 2V15.198C2.99829 15.322 3.0345 15.4433 3.10305 15.5466C3.17161 15.6499 3.26939 15.7304 3.3839 15.7778C3.49842 15.8252 3.62448 15.8375 3.74598 15.8129C3.86748 15.7884 3.97891 15.7282 4.06603 15.64H4.06703ZM4.00003 2C4.00003 1.4485 4.44853 1 5.00003 1H11C11.5515 1 12 1.4485 12 2V14.293L8.70703 11C8.61443 10.9068 8.50426 10.8329 8.3829 10.7827C8.26154 10.7324 8.1314 10.7066 8.00003 10.707C7.73303 10.707 7.48204 10.811 7.29304 11L4.00003 14.293V2Z" fill="#6D6E6F"/>
</g>
</svg>
