<svg width="16" height="16" viewBox="0 0 16 16" fill="none" xmlns="http://www.w3.org/2000/svg">
<g clip-path="url(#clip0_7368_624)">
<path d="M3 15.25C3.00049 15.3487 3.03011 15.445 3.08513 15.5269C3.14015 15.6088 3.21813 15.6726 3.30928 15.7104C3.40044 15.7481 3.50071 15.7581 3.59753 15.7391C3.69434 15.7201 3.78339 15.6729 3.8535 15.6035L8 11.457L12.1465 15.6035C12.2164 15.6734 12.3055 15.721 12.4025 15.7403C12.4995 15.7596 12.6 15.7497 12.6913 15.7118C12.7827 15.674 12.8608 15.6099 12.9157 15.5277C12.9706 15.4455 13 15.3489 13 15.25V2C13 0.897 12.103 0 11 0H5C3.897 0 3 0.897 3 2V15.25Z" fill="#D6CE38"/>
</g>
<defs>
<clipPath id="clip0_7368_624">
<rect width="16" height="16" fill="white"/>
</clipPath>
</defs>
</svg>
