<svg width="16" height="16" viewBox="0 0 16 16" fill="none" xmlns="http://www.w3.org/2000/svg">
<g id="lucide/user-round-x">
<path id="Vector" d="M1.33337 14C1.33337 13.072 1.57549 12.1602 2.03579 11.3544C2.4961 10.5487 3.15867 9.87698 3.95804 9.4057C4.7574 8.93441 5.6659 8.67985 6.59376 8.66716C7.52163 8.65447 8.43675 8.88409 9.24871 9.33333M11.3334 11.3333L14.6667 14.6667M14.6667 11.3333L11.3334 14.6667M10 5.33333C10 7.17428 8.50766 8.66667 6.66671 8.66667C4.82576 8.66667 3.33337 7.17428 3.33337 5.33333C3.33337 3.49238 4.82576 2 6.66671 2C8.50766 2 10 3.49238 10 5.33333Z" stroke="#6D6E6F" stroke-width="0.8" stroke-linecap="round" stroke-linejoin="round"/>
</g>
</svg>
