<svg width="14" height="9" viewBox="0 0 14 9" fill="none" xmlns="http://www.w3.org/2000/svg">
<path d="M14 0.9375C14 1.05353 13.9385 1.16481 13.8291 1.24686C13.7197 1.32891 13.5714 1.375 13.4167 1.375H0.583333C0.428624 1.375 0.280251 1.32891 0.170854 1.24686C0.0614582 1.16481 0 1.05353 0 0.9375C0 0.821468 0.0614582 0.710188 0.170854 0.628141C0.280251 0.546094 0.428624 0.5 0.583333 0.5H13.4167C13.5714 0.5 13.7197 0.546094 13.8291 0.628141C13.9385 0.710188 14 0.821468 14 0.9375ZM11.6667 4H2.33333C2.17862 4 2.03025 4.04609 1.92085 4.12814C1.81146 4.21019 1.75 4.32147 1.75 4.4375C1.75 4.55353 1.81146 4.66481 1.92085 4.74686C2.03025 4.82891 2.17862 4.875 2.33333 4.875H11.6667C11.8214 4.875 11.9697 4.82891 12.0791 4.74686C12.1885 4.66481 12.25 4.55353 12.25 4.4375C12.25 4.32147 12.1885 4.21019 12.0791 4.12814C11.9697 4.04609 11.8214 4 11.6667 4ZM9.91667 7.5H4.08333C3.92862 7.5 3.78025 7.54609 3.67085 7.62814C3.56146 7.71019 3.5 7.82147 3.5 7.9375C3.5 8.05353 3.56146 8.16481 3.67085 8.24686C3.78025 8.32891 3.92862 8.375 4.08333 8.375H9.91667C10.0714 8.375 10.2197 8.32891 10.3291 8.24686C10.4385 8.16481 10.5 8.05353 10.5 7.9375C10.5 7.82147 10.4385 7.71019 10.3291 7.62814C10.2197 7.54609 10.0714 7.5 9.91667 7.5Z" fill="#3F3F46"/>
</svg>
