<svg width="23" height="22" viewBox="0 0 23 22" fill="none" xmlns="http://www.w3.org/2000/svg">
<path d="M10.9737 0.530396V18.4251C10.9737 18.7043 10.8628 18.972 10.6654 19.1695C10.468 19.3669 10.2002 19.4778 9.92105 19.4778H3.60526C3.04691 19.4778 2.51143 19.256 2.11662 18.8611C1.7218 18.4663 1.5 17.9309 1.5 17.3725V2.63566C1.5 2.07731 1.7218 1.54183 2.11662 1.14701C2.51143 0.752199 3.04691 0.530396 3.60526 0.530396H18.3421C18.9005 0.530396 19.4359 0.752199 19.8308 1.14701C20.2256 1.54183 20.4474 2.07731 20.4474 2.63566V8.95145C20.4474 9.23062 20.3365 9.49836 20.1391 9.69577C19.9417 9.89318 19.6739 10.0041 19.3947 10.0041H1.5M15.1842 17.3725H21.5M18.3421 20.5304V14.2146" stroke="#09090B" stroke-width="1.05263" stroke-linecap="round" stroke-linejoin="round"/>
</svg>
