<svg width="131" height="132" viewBox="0 0 131 132" fill="none" xmlns="http://www.w3.org/2000/svg">
<path d="M85.27 18.2861H38.3171C37.1388 18.2861 36.2323 19.1932 36.2323 20.3723V108.356C36.2323 109.535 37.1388 110.442 38.3171 110.442H103.852C105.03 110.442 105.936 109.535 105.936 108.356V38.9667L85.27 18.2861Z" fill="#FFC7DB"/>
<path d="M85.2692 18.2861V34.3408C85.2692 36.8805 87.3539 38.9667 89.8921 38.9667H105.935L85.2692 18.2861Z" fill="#FF7381"/>
<path d="M59.1645 27.2649C60.1657 27.2649 60.9774 26.4527 60.9774 25.4508C60.9774 24.4489 60.1657 23.6367 59.1645 23.6367C58.1633 23.6367 57.3517 24.4489 57.3517 25.4508C57.3517 26.4527 58.1633 27.2649 59.1645 27.2649Z" fill="#FF7381"/>
<path d="M74.8454 38.8767C75.8466 38.8767 76.6582 38.0645 76.6582 37.0626C76.6582 36.0607 75.8466 35.2485 74.8454 35.2485C73.8442 35.2485 73.0326 36.0607 73.0326 37.0626C73.0326 38.0645 73.8442 38.8767 74.8454 38.8767Z" fill="#FF7381"/>
<path d="M85.1786 47.3117C86.1794 47.3117 86.9917 46.4995 86.9917 45.4976C86.9917 44.4958 86.1794 43.6836 85.1786 43.6836C84.177 43.6836 83.3655 44.4958 83.3655 45.4976C83.3655 46.4995 84.177 47.3117 85.1786 47.3117Z" fill="white"/>
<path d="M49.4663 36.7898C50.4675 36.7898 51.2791 35.9776 51.2791 34.9757C51.2791 33.9738 50.4675 33.1616 49.4663 33.1616C48.4651 33.1616 47.6534 33.9738 47.6534 34.9757C47.6534 35.9776 48.4651 36.7898 49.4663 36.7898Z" fill="white"/>
<path d="M81.5528 61.0974C82.5539 61.0974 83.3654 60.2853 83.3654 59.2833C83.3654 58.2814 82.5539 57.4692 81.5528 57.4692C80.5516 57.4692 79.74 58.2814 79.74 59.2833C79.74 60.2853 80.5516 61.0974 81.5528 61.0974Z" fill="white"/>
<path d="M51.2791 61.0974C52.2803 61.0974 53.092 60.2853 53.092 59.2833C53.092 58.2814 52.2803 57.4692 51.2791 57.4692C50.2779 57.4692 49.4663 58.2814 49.4663 59.2833C49.4663 60.2853 50.2779 61.0974 51.2791 61.0974Z" fill="#FF7381"/>
<path d="M75.6618 50.2109C69.0449 49.2131 63.7877 43.9523 62.7906 37.3309C62.7906 37.1495 62.5187 37.1495 62.428 37.3309C61.431 43.9523 56.1737 49.2131 49.5568 50.2109C49.3756 50.2109 49.3756 50.483 49.5568 50.5737C56.1737 51.5714 61.431 56.8323 62.428 63.4537C62.428 63.6352 62.7 63.6352 62.7906 63.4537C63.7877 56.8323 69.0449 51.5714 75.6618 50.5737C75.8431 50.483 75.8431 50.2109 75.6618 50.2109Z" fill="white"/>
<path d="M71.1297 70.1682C72.1309 70.1682 72.9426 69.3561 72.9426 68.3542C72.9426 67.3522 72.1309 66.54 71.1297 66.54C70.1285 66.54 69.3169 67.3522 69.3169 68.3542C69.3169 69.3561 70.1285 70.1682 71.1297 70.1682Z" fill="white"/>
<path d="M75.2996 113.345C79.755 113.345 83.3671 109.73 83.3671 105.272C83.3671 100.813 79.755 97.1992 75.2996 97.1992C70.8443 97.1992 67.2324 100.813 67.2324 105.272C67.2324 109.73 70.8443 113.345 75.2996 113.345Z" fill="#0073DE"/>
<path d="M78.6521 103.095L73.9387 107.721L71.9445 105.726" stroke="#004484" stroke-width="0.552663" stroke-miterlimit="10"/>
<path d="M57.6238 73.7964H14.9312V101.371H57.6238V73.7964Z" fill="#0073DE"/>
<path d="M21.9102 83.4111V81.5063H30.612V83.4111" stroke="#004484" stroke-width="0.552663" stroke-miterlimit="10"/>
<path d="M26.2616 81.5063V92.9351" stroke="#004484" stroke-width="0.552663" stroke-miterlimit="10"/>
<path d="M23.9955 92.9365H28.5276" stroke="#004484" stroke-width="0.552663" stroke-miterlimit="10"/>
<path d="M34.057 81.5063H50.8258" stroke="#004484" stroke-width="0.552663" stroke-miterlimit="10"/>
<path d="M34.057 87.2222H50.8258" stroke="#004484" stroke-width="0.552663" stroke-miterlimit="10"/>
<path d="M34.057 92.9365H50.8258" stroke="#004484" stroke-width="0.552663" stroke-miterlimit="10"/>
<path d="M90.2346 95.1956H116.068V70.9775H90.2346V95.1956Z" fill="#FF7381"/>
<path d="M115.997 89.7615C114.003 88.0389 111.646 87.0406 109.199 86.95C107.295 86.8595 105.483 87.313 103.579 87.2225C101.948 87.1311 100.225 86.5871 98.8656 85.6801C97.1439 84.5007 95.7842 82.5962 94.2427 81.145C93.0649 80.0565 91.7053 79.1495 90.2551 78.4238" stroke="#CC4659" stroke-width="0.552663" stroke-miterlimit="10"/>
<path d="M106.842 82.1415C108.644 82.1415 110.105 80.6796 110.105 78.8762C110.105 77.0728 108.644 75.6108 106.842 75.6108C105.04 75.6108 103.579 77.0728 103.579 78.8762C103.579 80.6796 105.04 82.1415 106.842 82.1415Z" fill="#FFC7DB"/>
</svg>
