<svg width="301" height="125" viewBox="0 0 301 125" fill="none" xmlns="http://www.w3.org/2000/svg">
<path d="M120.413 27.9892L93.7485 30.0381L95.6586 54.8951L122.323 52.8462L120.413 27.9892Z" fill="#FF727F"/>
<path d="M115.153 26.575L98.8833 27.8252L99.1611 31.4408L115.431 30.1906L115.153 26.575Z" fill="white"/>
<path d="M99.0485 28.2119L99.3495 31.2174L103.203 30.8494L107.267 30.4859L115.033 29.8501L114.82 26.9612L107.227 27.4684L99.2735 27.9274C98.7709 27.9545 98.7362 27.7017 99.2525 27.6535L107.186 26.9048L115.48 26.1914L115.826 30.5296L107.319 31.1526L98.9552 31.6794L98.7626 28.2352C98.7355 27.6881 98.9966 27.6979 99.0485 28.2119Z" fill="#202020"/>
<path d="M138.921 38.3027L113.072 45.1611L119.466 69.2577L145.315 62.3992L138.921 38.3027Z" fill="white"/>
<path d="M113.469 46.1235L119.684 68.8814L144.865 62.1352L138.702 38.6798L114.068 45.0369C112.804 45.3597 112.7 45.1265 113.997 44.7705L139.137 37.9258C141.345 46.1727 143.554 54.4171 145.765 62.659L119.24 69.6422L113.19 46.1965C112.843 44.824 113.114 44.8337 113.469 46.1235Z" fill="#202020"/>
<path d="M133.491 37.8669L117.719 42.0518L118.649 45.5568L134.421 41.3719L133.491 37.8669Z" fill="white"/>
<path d="M117.953 42.4035L118.797 45.3036L122.519 44.2411L126.449 43.1462L133.97 41.1144L133.236 38.3121L125.862 40.1934L118.124 42.0897C117.635 42.2078 117.555 41.9678 118.054 41.824L125.719 39.6463L133.746 37.4385L134.874 41.6419L126.622 43.7994L118.495 45.8356C118.223 44.7194 117.951 43.6022 117.679 42.484C117.549 41.9429 117.808 41.9061 117.953 42.4035Z" fill="#202020"/>
<path d="M116.036 36.9002C110.338 37.5713 104.608 37.9306 98.871 37.9763C98.649 37.9763 98.6264 37.7272 98.8537 37.7016C104.552 37.0435 110.281 36.6806 116.017 36.6143C116.261 36.6128 116.261 36.8731 116.036 36.9002Z" fill="#202020"/>
<g style="mix-blend-mode:multiply">
<path d="M187.966 4.78927L161.55 8.95898L165.437 33.5844L191.853 29.4147L187.966 4.78927Z" fill="#FFE200"/>
<path d="M182.609 3.7995L166.49 6.34375L167.056 9.9257L183.174 7.38145L182.609 3.7995Z" fill="white"/>
<path d="M166.687 6.71615L167.229 9.68777L171.04 9.01052L175.062 8.32424L182.752 7.07133L182.31 4.21183L174.785 5.32327L166.893 6.4159C166.394 6.48212 166.339 6.2353 166.85 6.14425L174.698 4.76416L182.909 3.3916L183.599 7.68913L175.171 8.98794L166.877 10.1799C166.722 9.04112 166.566 7.90159 166.41 6.7613C166.333 6.21874 166.594 6.20746 166.687 6.71615Z" fill="#202020"/>
<path d="M184.324 13.7026C178.845 14.8838 173.303 15.7576 167.726 16.3198C167.511 16.3424 167.464 16.0941 167.683 16.0482C173.165 14.8799 178.705 14.0027 184.28 13.4204C184.513 13.3971 184.542 13.6575 184.324 13.7026Z" fill="#202020"/>
<path d="M185.018 18.8579C179.538 20.0391 173.997 20.9128 168.42 21.4751C168.205 21.4977 168.159 21.2493 168.377 21.2034C173.859 20.0352 179.399 19.158 184.973 18.5757C185.208 18.5524 185.235 18.8112 185.018 18.8579Z" fill="#202020"/>
</g>
<g style="mix-blend-mode:multiply">
<path d="M155.808 84.2602L130.171 84.9297L130.795 108.828L156.432 108.158L155.808 84.2602Z" fill="white"/>
<path d="M130.835 97.3645C130.718 93.319 130.602 89.2736 130.486 85.2282L154.859 84.4275C155.162 84.4339 155.464 84.3954 155.755 84.3131C155.683 84.6213 155.657 84.9387 155.68 85.2545C155.822 92.788 155.964 100.32 156.105 107.851L137.832 108.289L137.725 108.999L156.743 108.456L155.966 85.247C155.944 84.6216 155.87 84.2905 155.803 84.2687C155.803 84.2017 155.479 84.143 154.849 84.1536L129.851 84.6292L130.152 97.2441L130.835 97.3645Z" fill="#202020"/>
<path d="M150.693 82.6549L135.05 83.0635L135.141 86.5396L150.784 86.1311L150.693 82.6549Z" fill="white"/>
<path d="M150.839 83.0332L150.997 86.3329L142.975 86.6655L134.784 86.9176L134.683 82.7126L142.684 82.5794L150.324 82.5312C150.807 82.5312 150.829 82.7826 150.331 82.8067L142.698 83.1453L135.419 83.4109L135.503 86.1613L142.958 85.9973L146.871 85.9423L150.558 85.9152V83.0407C150.553 82.5162 150.813 82.5388 150.839 83.0332Z" fill="#202020"/>
<path d="M113.533 96.5883L109.805 120.202L135.137 124.201L138.864 100.587L113.533 96.5883Z" fill="white"/>
<path d="M138.843 101.586L135.39 124.55L109.382 120.509L113.274 96.2324L137.943 100.306C139.176 100.513 139.176 100.768 137.9 100.578L113.787 96.9375C112.599 104.592 111.413 112.244 110.226 119.895L134.873 123.839C136.102 116.406 137.331 108.973 138.561 101.541C138.786 100.201 139.03 100.316 138.843 101.586Z" fill="#202020"/>
<path d="M118.669 95.6385L118.127 99.0732L133.584 101.513L134.126 98.0783L118.669 95.6385Z" fill="white"/>
<path d="M134.2 98.4763L133.756 101.75L125.805 100.622L117.704 99.3823L118.369 95.2285L126.262 96.5514L133.782 97.8916C134.258 97.9789 134.234 98.2302 133.739 98.1633L126.172 97.1098L118.966 96.0495L118.548 98.769L125.909 99.9625L129.765 100.619L133.399 101.262L133.917 98.4349C134.013 97.9164 134.265 97.9857 134.2 98.4763Z" fill="#202020"/>
<path d="M135.213 92.7326C140.689 92.2012 146.191 91.9824 151.693 92.0772C151.905 92.0772 151.922 92.3323 151.704 92.3518C146.227 92.8703 140.725 93.0929 135.224 93.0185C134.993 93.0148 134.998 92.7544 135.213 92.7326Z" fill="#202020"/>
<path d="M117.066 104.871C122.415 105.4 127.729 106.24 132.981 107.388C133.184 107.432 133.151 107.682 132.938 107.659C127.59 107.118 122.277 106.281 117.021 105.154C116.801 105.105 116.853 104.851 117.066 104.871Z" fill="#202020"/>
<path d="M116.4 109.817C121.75 110.345 127.064 111.185 132.316 112.333C132.519 112.377 132.486 112.627 132.273 112.605C126.925 112.063 121.611 111.227 116.355 110.099C116.135 110.054 116.186 109.796 116.4 109.817Z" fill="#202020"/>
</g>
<path d="M137.03 52.2387C136.491 50.3026 135.224 48.6503 133.493 47.6281C131.784 46.6157 129.749 46.3043 127.814 46.7589C125.897 47.2078 124.228 48.3814 123.158 50.0338C122.087 51.6862 121.697 53.689 122.071 55.6222C122.445 57.5554 123.552 59.2689 125.161 60.4034C126.771 61.5379 128.757 62.0052 130.703 61.7074C132.669 61.4083 134.444 60.3598 135.654 58.7816C136.878 57.1865 137.437 55.1791 137.213 53.1808C137.138 52.5698 137.382 52.4892 137.485 53.1447C137.793 55.2327 137.27 57.358 136.028 59.0646C134.768 60.7932 132.882 61.9605 130.773 62.3169C128.663 62.6734 126.498 62.1908 124.74 60.9722C123.418 60.0592 122.392 58.7795 121.787 57.2906C121.183 55.8017 121.027 54.1685 121.339 52.5922C121.651 51.0159 122.417 49.5651 123.542 48.4185C124.668 47.2719 126.105 46.4795 127.675 46.1389C129.762 45.6872 131.942 46.0711 133.749 47.2082C135.537 48.3326 136.813 50.1132 137.303 52.1679C137.459 52.8504 137.191 52.8474 137.03 52.2387Z" fill="#202020"/>
<path d="M133.17 50.3605C132.521 51.6713 131.836 52.9621 131.116 54.2328C130.756 54.8679 130.388 55.4983 130.011 56.1238C129.57 56.8395 129.129 57.5536 128.682 58.279L128.019 57.8275L127.643 57.5619L126.895 57.0238L125.416 55.9237C125.389 55.9022 125.371 55.8715 125.366 55.8375C125.36 55.8034 125.367 55.7685 125.386 55.7396C125.405 55.7107 125.434 55.6899 125.467 55.6812C125.501 55.6725 125.536 55.6766 125.567 55.6927L127.168 56.6055L127.962 57.0712L128.358 57.3075C128.448 57.3625 128.428 57.3467 128.444 57.3542L128.469 57.3617L128.481 57.3263C128.488 57.3121 128.471 57.3376 128.497 57.2917L128.564 57.1721L128.833 56.6957L129.38 55.7468C129.749 55.1163 130.125 54.4907 130.509 53.8701C131.279 52.629 132.084 51.4099 132.925 50.213C132.946 50.1841 132.977 50.1642 133.012 50.1571C133.047 50.1501 133.084 50.1564 133.114 50.1748C133.145 50.1933 133.168 50.2226 133.178 50.2569C133.188 50.2913 133.185 50.3282 133.17 50.3605Z" fill="#202020"/>
<path d="M163.719 43.4728L160.629 68.2109L187.166 71.5252L190.256 46.7871L163.719 43.4728Z" fill="#00CAFF"/>
<path d="M169.191 42.3294L168.741 45.9277L184.934 47.95L185.383 44.3517L169.191 42.3294Z" fill="white"/>
<path d="M169.279 42.7423L168.978 45.7478L172.827 46.1564L176.881 46.6117L184.618 47.5388L184.986 44.665L177.439 43.6468L169.555 42.5091C169.057 42.4338 169.072 42.1825 169.589 42.2359L177.515 43.0855L185.785 44.0427L185.258 48.3628L176.798 47.2746L168.498 46.1203C168.665 44.984 168.831 43.8463 168.997 42.707C169.075 42.1659 169.33 42.2284 169.279 42.7423Z" fill="#202020"/>
<path d="M184.19 54.6474C178.473 54.1676 172.786 53.3758 167.156 52.2755C166.938 52.2334 166.966 51.9828 167.194 52.0031C172.909 52.4955 178.595 53.2834 184.229 54.3637C184.465 54.4104 184.417 54.6692 184.19 54.6474Z" fill="#202020"/>
<path d="M180.516 61.0687L180.067 85.999L206.81 86.4804L207.259 61.5501L180.516 61.0687Z" fill="white"/>
<path d="M180.629 62.1408L180.373 85.7317L206.439 86.1388L206.937 61.8932L181.503 61.2574C180.199 61.222 180.163 60.9684 181.507 60.982L207.563 61.2882C207.429 69.8241 207.296 78.3582 207.163 86.8905L179.741 86.3427L180.343 62.1363C180.382 60.7201 180.641 60.8036 180.629 62.1408Z" fill="#202020"/>
<path d="M185.833 59.388L185.768 63.0137L202.083 63.3081L202.149 59.6824L185.833 59.388Z" fill="white"/>
<path d="M185.961 59.7862L185.978 62.8068H189.849L193.928 62.8301L201.72 62.9317L201.781 60.0353L194.174 59.8223L186.213 59.5274C185.709 59.5063 185.699 59.2535 186.218 59.252L194.186 59.2572L202.51 59.3325L202.444 63.6842L193.919 63.4991L185.544 63.2312C185.588 62.0839 185.633 60.9348 185.678 59.784C185.698 59.2377 185.957 59.273 185.961 59.7862Z" fill="#202020"/>
<path d="M201.613 74.4742C201.626 72.4649 200.86 70.5288 199.477 69.0712C198.11 67.6295 196.237 66.7726 194.253 66.6798C192.285 66.5852 190.357 67.2566 188.873 68.5531C187.39 69.8495 186.466 71.6702 186.297 73.633C186.127 75.5958 186.724 77.548 187.963 79.0799C189.202 80.6117 190.986 81.6041 192.941 81.8487C194.914 82.0995 196.907 81.5769 198.503 80.3903C200.118 79.1916 201.205 77.4139 201.537 75.4306C201.633 74.8233 201.889 74.8121 201.809 75.4705C201.532 77.5628 200.447 79.4635 198.786 80.7651C197.1 82.0823 194.966 82.6882 192.84 82.4534C190.714 82.2186 188.764 81.1617 187.406 79.5084C186.384 78.2681 185.748 76.756 185.574 75.1583C185.401 73.5606 185.698 71.9471 186.43 70.5164C187.162 69.0857 188.297 67.9003 189.694 67.106C191.091 66.3118 192.689 65.9434 194.293 66.0462C196.424 66.1834 198.416 67.15 199.842 68.7386C201.254 70.309 201.994 72.3709 201.902 74.481C201.86 75.18 201.603 75.104 201.613 74.4742Z" fill="#202020"/>
<path d="M198.416 71.612C197.433 72.6941 196.421 73.7476 195.38 74.7725C194.86 75.2852 194.333 75.7906 193.8 76.2888L191.931 77.997L191.416 77.3829L191.127 77.0247L190.555 76.3023L189.434 74.8395C189.416 74.8114 189.408 74.7776 189.413 74.7443C189.418 74.7111 189.434 74.6806 189.459 74.6585C189.485 74.6364 189.517 74.6242 189.551 74.6242C189.584 74.6241 189.617 74.6362 189.642 74.6581L190.932 75.9742L191.568 76.6402L191.884 76.9751C191.955 77.0503 191.941 77.0323 191.954 77.0435L191.976 77.0578L191.997 77.027C192.008 77.0157 191.984 77.0353 192.022 76.9984L192.119 76.9021L192.509 76.5168L193.295 75.7545C193.822 75.2488 194.356 74.7504 194.895 74.2593C195.976 73.2765 197.084 72.3234 198.22 71.3998C198.248 71.3738 198.285 71.36 198.323 71.3614C198.362 71.3629 198.398 71.3796 198.424 71.4077C198.45 71.4358 198.464 71.4732 198.462 71.5115C198.461 71.5498 198.444 71.586 198.416 71.612Z" fill="#202020"/>
</svg>
