<svg width="21" height="21" viewBox="0 0 21 21" fill="none" xmlns="http://www.w3.org/2000/svg">
<path d="M10.5 11.3334C10.9603 11.3334 11.3334 10.9603 11.3334 10.5C11.3334 10.0398 10.9603 9.66669 10.5 9.66669C10.0398 9.66669 9.66671 10.0398 9.66671 10.5C9.66671 10.9603 10.0398 11.3334 10.5 11.3334Z" stroke="#A1A1AA" stroke-linecap="round" stroke-linejoin="round"/>
<path d="M16.3334 11.3334C16.7936 11.3334 17.1667 10.9603 17.1667 10.5C17.1667 10.0398 16.7936 9.66669 16.3334 9.66669C15.8731 9.66669 15.5 10.0398 15.5 10.5C15.5 10.9603 15.8731 11.3334 16.3334 11.3334Z" stroke="#A1A1AA" stroke-linecap="round" stroke-linejoin="round"/>
<path d="M4.66671 11.3334C5.12694 11.3334 5.50004 10.9603 5.50004 10.5C5.50004 10.0398 5.12694 9.66669 4.66671 9.66669C4.20647 9.66669 3.83337 10.0398 3.83337 10.5C3.83337 10.9603 4.20647 11.3334 4.66671 11.3334Z" stroke="#A1A1AA" stroke-linecap="round" stroke-linejoin="round"/>
</svg>
