<svg width="20" height="21" viewBox="0 0 20 21" fill="none" xmlns="http://www.w3.org/2000/svg">
<path d="M18.9501 8.00005L11.1001 2.40005C10.4501 1.90005 9.5501 1.90005 8.9001 2.35005L1.1001 7.70005C0.750104 7.95005 0.650103 8.40005 0.900103 8.75005C1.1501 9.10005 1.6001 9.20005 1.9501 8.95005L3.0001 8.20005V14.3501C3.0001 16.6501 4.8501 18.5001 7.1501 18.5001H12.8501C15.1501 18.5001 17.0001 16.6501 17.0001 14.3501V8.45005L18.0501 9.20005C18.2001 9.30005 18.3501 9.35005 18.5001 9.35005C18.7501 9.35005 18.9501 9.25005 19.1001 9.05005C19.3501 8.70005 19.2501 8.25005 18.9501 8.00005ZM15.5001 14.3501C15.5001 15.8001 14.3001 17.0001 12.8501 17.0001H7.1501C5.7001 17.0001 4.5001 15.8001 4.5001 14.3501V7.15005L9.8001 3.55005C9.9001 3.45005 10.0501 3.45005 10.2001 3.55005L15.5001 7.35005V14.3501Z" fill="white"/>
</svg>
