<svg width="17" height="17" viewBox="0 0 17 17" fill="none" xmlns="http://www.w3.org/2000/svg">
<path d="M2.87518 13.9H2.42518C1.75018 13.9 1.16518 13.54 0.89518 13C0.53518 12.325 0.71518 11.47 1.30018 10.975C1.84018 10.525 2.15518 9.89502 2.20018 9.22002V6.47502C2.20018 3.14502 5.03518 0.400024 8.50018 0.400024C11.9652 0.400024 14.8002 3.14502 14.8002 6.47502V9.40002C14.8902 10.03 15.2052 10.57 15.7002 10.975C16.2852 11.47 16.4652 12.28 16.1052 13C15.8352 13.54 15.2052 13.9 14.5752 13.9H14.1702H2.87518ZM2.92018 12.55H14.5302C14.6652 12.55 14.8452 12.46 14.8902 12.37C14.9802 12.19 14.8902 12.055 14.8002 12.01C14.0802 11.38 13.5852 10.525 13.4502 9.53502C13.4502 9.49002 13.4502 9.49002 13.4502 9.44502V6.47502C13.4502 3.86502 11.2452 1.75002 8.50018 1.75002C5.75518 1.75002 3.55018 3.86502 3.55018 6.47502V9.22002V9.26502C3.46018 10.345 2.96518 11.29 2.15518 11.965C2.06518 12.055 2.02018 12.19 2.06518 12.325C2.15518 12.46 2.29018 12.55 2.42518 12.55H2.92018ZM10.6152 14.8C10.3002 15.655 9.49018 16.24 8.50018 16.24C7.51018 16.24 6.70018 15.655 6.38518 14.8H10.6152Z" fill="#A1A1AA"/>
</svg>
