<svg width="19" height="18" viewBox="0 0 19 18" fill="none" xmlns="http://www.w3.org/2000/svg">
<path d="M11.275 2.33334C11.1285 2.08078 10.9182 1.87113 10.6652 1.7254C10.4122 1.57967 10.1253 1.50296 9.83333 1.50296C9.54135 1.50296 9.25449 1.57967 9.00148 1.7254C8.74847 1.87113 8.53818 2.08078 8.39167 2.33334L1.725 14C1.57879 14.2532 1.50178 14.5405 1.50171 14.8329C1.50163 15.1253 1.57849 15.4126 1.72457 15.6659C1.87065 15.9192 2.08081 16.1297 2.33393 16.2761C2.58706 16.4225 2.87425 16.4997 3.16667 16.5H16.5C16.7924 16.4997 17.0796 16.4225 17.3327 16.2761C17.5859 16.1297 17.796 15.9192 17.9421 15.6659C18.0882 15.4126 18.165 15.1253 18.165 14.8329C18.1649 14.5405 18.0879 14.2532 17.9417 14L11.275 2.33334Z" stroke="#18181B" stroke-width="1.2" stroke-linecap="round" stroke-linejoin="round"/>
</svg>
