<svg width="15" height="17" viewBox="0 0 15 17" fill="none" xmlns="http://www.w3.org/2000/svg">
<path d="M5.95045 15.25C6.08211 15.478 6.27146 15.6674 6.49949 15.799C6.72751 15.9306 6.98616 15.9999 7.24945 15.9999C7.51274 15.9999 7.7714 15.9306 7.99942 15.799C8.22744 15.6674 8.41679 15.478 8.54845 15.25M0.695952 10.9945C0.597975 11.1019 0.533318 11.2354 0.509844 11.3789C0.48637 11.5223 0.505092 11.6695 0.563732 11.8025C0.622372 11.9356 0.718403 12.0487 0.840144 12.1281C0.961884 12.2075 1.10409 12.2499 1.24945 12.25H13.2495C13.3948 12.2501 13.537 12.2079 13.6589 12.1286C13.7807 12.0493 13.8768 11.9363 13.9356 11.8034C13.9944 11.6705 14.0133 11.5233 13.99 11.3798C13.9667 11.2364 13.9023 11.1028 13.8045 10.9952C12.807 9.967 11.7495 8.87425 11.7495 5.5C11.7495 4.30653 11.2753 3.16193 10.4314 2.31802C9.58752 1.47411 8.44293 1 7.24945 1C6.05598 1 4.91139 1.47411 4.06747 2.31802C3.22356 3.16193 2.74945 4.30653 2.74945 5.5C2.74945 8.87425 1.6912 9.967 0.695952 10.9945Z" stroke="#3F3F46" stroke-width="0.9" stroke-linecap="round" stroke-linejoin="round"/>
</svg>
