<svg width="15" height="18" viewBox="0 0 15 18" fill="none" xmlns="http://www.w3.org/2000/svg">
<path d="M10.8334 2.33334H12.5C12.9421 2.33334 13.366 2.50893 13.6786 2.82149C13.9911 3.13405 14.1667 3.55798 14.1667 4.00001V15.6667C14.1667 16.1087 13.9911 16.5326 13.6786 16.8452C13.366 17.1577 12.9421 17.3333 12.5 17.3333H2.50004C2.05801 17.3333 1.63409 17.1577 1.32153 16.8452C1.00897 16.5326 0.833374 16.1087 0.833374 15.6667V4.00001C0.833374 3.55798 1.00897 3.13405 1.32153 2.82149C1.63409 2.50893 2.05801 2.33334 2.50004 2.33334H4.16671M7.50004 8.16667H10.8334M7.50004 12.3333H10.8334M4.16671 8.16667H4.17504M4.16671 12.3333H4.17504M5.00004 0.666672H10C10.4603 0.666672 10.8334 1.03977 10.8334 1.50001V3.16667C10.8334 3.62691 10.4603 4.00001 10 4.00001H5.00004C4.5398 4.00001 4.16671 3.62691 4.16671 3.16667V1.50001C4.16671 1.03977 4.5398 0.666672 5.00004 0.666672Z" stroke="#18181B" stroke-width="0.9" stroke-linecap="round" stroke-linejoin="round"/>
</svg>
