<svg  viewBox="0 0 16 18" fill="none" xmlns="http://www.w3.org/2000/svg">
<path d="M11.3333 2.33335H13C13.442 2.33335 13.8659 2.50895 14.1785 2.82151C14.4911 3.13407 14.6666 3.55799 14.6666 4.00002V15.6667C14.6666 16.1087 14.4911 16.5326 14.1785 16.8452C13.8659 17.1578 13.442 17.3334 13 17.3334H2.99998C2.55795 17.3334 2.13403 17.1578 1.82147 16.8452C1.50891 16.5326 1.33331 16.1087 1.33331 15.6667V4.00002C1.33331 3.55799 1.50891 3.13407 1.82147 2.82151C2.13403 2.50895 2.55795 2.33335 2.99998 2.33335H4.66665M7.99998 8.16669H11.3333M7.99998 12.3334H11.3333M4.66665 8.16669H4.67498M4.66665 12.3334H4.67498M5.49998 0.666687H10.5C10.9602 0.666687 11.3333 1.03978 11.3333 1.50002V3.16669C11.3333 3.62692 10.9602 4.00002 10.5 4.00002H5.49998C5.03974 4.00002 4.66665 3.62692 4.66665 3.16669V1.50002C4.66665 1.03978 5.03974 0.666687 5.49998 0.666687Z" stroke="#18181B" stroke-width="0.9" stroke-linecap="round" stroke-linejoin="round"/>
</svg>
