<svg width="20" height="20" viewBox="0 0 20 20" fill="none" xmlns="http://www.w3.org/2000/svg">
<path d="M19.7126 12.6999C19.7116 14.382 19.0825 16.0031 17.9487 17.2457C16.8148 18.4882 15.2579 19.2627 13.5829 19.4172C11.9079 19.5718 10.2355 19.0954 8.89339 18.0814C7.55129 17.0673 6.63618 15.5887 6.32733 13.9351C7.40468 14.1355 8.51461 14.0706 9.56125 13.746C10.6079 13.4213 11.5598 12.8468 12.3346 12.0719C13.1095 11.2971 13.684 10.3452 14.0087 9.29855C14.3333 8.25192 14.3982 7.14198 14.1978 6.06464C15.747 6.35301 17.1465 7.17429 18.1537 8.38616C19.1609 9.59803 19.7124 11.1241 19.7126 12.6999ZM12.9626 5.94989C13.377 5.95028 13.7905 5.98869 14.1978 6.06464C13.973 4.85589 13.4223 3.7315 12.6052 2.81284C11.7881 1.89418 10.7355 1.21615 9.56125 0.851929C8.38695 0.48771 7.13548 0.45114 5.94192 0.746165C4.74836 1.04119 3.65805 1.6566 2.78867 2.52598C1.9193 3.39535 1.30389 4.48567 1.00886 5.67923C0.713835 6.87279 0.750406 8.12426 1.11462 9.29855C1.47884 10.4728 2.15688 11.5254 3.07553 12.3425C3.99419 13.1596 5.11858 13.7103 6.32733 13.9351C6.14598 12.9609 6.18137 11.9586 6.43101 10.9996C6.68064 10.0405 7.13839 9.14819 7.77174 8.38598C8.40509 7.62377 9.1985 7.01037 10.0956 6.58935C10.9927 6.16832 11.9716 5.95 12.9626 5.94989Z" fill="#FFDDF8"/>
</svg>
