<svg width="21" height="21" viewBox="0 0 21 21" fill="none" xmlns="http://www.w3.org/2000/svg">
<path d="M4.87518 15.9H4.42518C3.75018 15.9 3.16518 15.54 2.89518 15C2.53518 14.325 2.71518 13.47 3.30018 12.975C3.84018 12.525 4.15518 11.895 4.20018 11.22V8.47502C4.20018 5.14502 7.03518 2.40002 10.5002 2.40002C13.9652 2.40002 16.8002 5.14502 16.8002 8.47502V11.4C16.8902 12.03 17.2052 12.57 17.7002 12.975C18.2852 13.47 18.4652 14.28 18.1052 15C17.8352 15.54 17.2052 15.9 16.5752 15.9H16.1702H4.87518ZM4.92018 14.55H16.5302C16.6652 14.55 16.8452 14.46 16.8902 14.37C16.9802 14.19 16.8902 14.055 16.8002 14.01C16.0802 13.38 15.5852 12.525 15.4502 11.535C15.4502 11.49 15.4502 11.49 15.4502 11.445V8.47502C15.4502 5.86502 13.2452 3.75002 10.5002 3.75002C7.75518 3.75002 5.55018 5.86502 5.55018 8.47502V11.22V11.265C5.46018 12.345 4.96518 13.29 4.15518 13.965C4.06518 14.055 4.02018 14.19 4.06518 14.325C4.15518 14.46 4.29018 14.55 4.42518 14.55H4.92018ZM12.6152 16.8C12.3002 17.655 11.4902 18.24 10.5002 18.24C9.51018 18.24 8.70018 17.655 8.38518 16.8H12.6152Z" fill="#A1A1AA"/>
</svg>
