<svg width="24" height="24" viewBox="0 0 24 24" fill="none" xmlns="http://www.w3.org/2000/svg">
<rect x="0.266667" y="0.266667" width="23.4667" height="23.4667" rx="11.7333" stroke="#71717A" stroke-width="0.533333" stroke-linejoin="round" stroke-dasharray="2.67 2.67"/>
<path d="M12 12.5C13.3807 12.5 14.5 11.3807 14.5 10C14.5 8.61929 13.3807 7.5 12 7.5C10.6193 7.5 9.5 8.61929 9.5 10C9.5 11.3807 10.6193 12.5 12 12.5ZM12 12.5C13.0609 12.5 14.0783 12.9214 14.8284 13.6716C15.5786 14.4217 16 15.4391 16 16.5M12 12.5C10.9391 12.5 9.92172 12.9214 9.17157 13.6716C8.42143 14.4217 8 15.4391 8 16.5" stroke="#71717A" stroke-linecap="round" stroke-linejoin="round"/>
</svg>
