<svg width="16" height="11" viewBox="0 0 16 11" fill="none" xmlns="http://www.w3.org/2000/svg">
<path d="M1.37443 5.73206C1.31887 5.58238 1.31887 5.41773 1.37443 5.26806C1.91557 3.95596 2.83411 2.83408 4.01361 2.04466C5.19312 1.25523 6.58046 0.833801 7.99977 0.833801C9.41907 0.833801 10.8064 1.25523 11.9859 2.04466C13.1654 2.83408 14.084 3.95596 14.6251 5.26806C14.6807 5.41773 14.6807 5.58238 14.6251 5.73206C14.084 7.04415 13.1654 8.16603 11.9859 8.95546C10.8064 9.74489 9.41907 10.1663 7.99977 10.1663C6.58046 10.1663 5.19312 9.74489 4.01361 8.95546C2.83411 8.16603 1.91557 7.04415 1.37443 5.73206Z" stroke="white" stroke-width="0.96" stroke-linecap="round" stroke-linejoin="round"/>
<path d="M7.99977 7.50006C9.10434 7.50006 9.99977 6.60463 9.99977 5.50006C9.99977 4.39549 9.10434 3.50006 7.99977 3.50006C6.8952 3.50006 5.99977 4.39549 5.99977 5.50006C5.99977 6.60463 6.8952 7.50006 7.99977 7.50006Z" stroke="white" stroke-width="0.96" stroke-linecap="round" stroke-linejoin="round"/>
</svg>
