<svg width="19" height="18" viewBox="0 0 19 18" fill="none" xmlns="http://www.w3.org/2000/svg">
<path d="M1 16.5C0.99993 15.2169 1.37011 13.9611 2.06612 12.8832C2.76213 11.8054 3.75439 10.9512 4.92383 10.4233C6.09327 9.89546 7.3902 9.71625 8.65897 9.90723C9.92773 10.0982 11.1144 10.6513 12.0767 11.5M15.1667 12.3333V17.3333M17.6667 14.8333H12.6667M11.8333 5.66667C11.8333 7.96785 9.96785 9.83333 7.66667 9.83333C5.36548 9.83333 3.5 7.96785 3.5 5.66667C3.5 3.36548 5.36548 1.5 7.66667 1.5C9.96785 1.5 11.8333 3.36548 11.8333 5.66667Z" stroke="#000B33" stroke-width="1.2" stroke-linecap="round" stroke-linejoin="round"/>
</svg>
